<svg width="672.5" height="1120.0" viewBox="0 0 672.5 1120.0" xmlns="http://www.w3.org/2000/svg">
<style>
    svg {
        font-family: SFMono-Regular,Consolas,Liberation Mono,Menlo,monospace;
        font-size: 14px;
        font-kerning: normal;
        text-rendering: optimizeLegibility;
        fill: #24292e;
    }

    rect {
        fill: #f6f8fa;
        width: 55px;
        height: 45px;
        rx: 6px;
        ry: 6px;
    }

    text {
        dominant-baseline: middle;
        text-anchor: middle;
    }

    .held {
        fill: #fdd;
    }
</style>

<rect x="29.5"  y="24.5" class="" />
<text x="57.0"  y="38.0">q</text>
<text x="57.0"  y="56.0">(dk)</text>
<rect x="88.5"  y="24.5" class="" />
<text x="116.0" y="47.0">w</text>
<rect x="147.5" y="24.5" class="" />
<text x="175.0" y="47.0">e</text>
<rect x="206.5" y="24.5" class="" />
<text x="234.0" y="47.0">r</text>
<rect x="265.5" y="24.5" class="" />
<text x="293.0" y="47.0">t</text>

<rect x="29.5"  y="73.5" class="" />
<text x="57.0"  y="96.0">a</text>
<rect x="88.5"  y="73.5" class="" />
<text x="116.0" y="96.0">s</text>
<rect x="147.5" y="73.5" class="" />
<text x="175.0" y="96.0">d</text>
<rect x="206.5" y="73.5" class="" />
<text x="234.0" y="96.0">f</text>
<rect x="265.5" y="73.5" class="" />
<text x="293.0" y="96.0">g</text>

<rect x="29.5"  y="122.5" class="" />
<text x="57.0"  y="136.0">z</text>
<text x="57.0"  y="154.0">(shft)</text>
<rect x="88.5"  y="122.5" class="" />
<text x="116.0" y="145.0">x</text>
<rect x="147.5" y="122.5" class="" />
<text x="175.0" y="145.0">c</text>
<rect x="206.5" y="122.5" class="" />
<text x="234.0" y="145.0">v</text>
<rect x="265.5" y="122.5" class="" />
<text x="293.0" y="145.0">b</text>

<rect x="352.0" y="24.5" class="" />
<text x="379.5" y="47.0">y</text>
<rect x="411.0" y="24.5" class="" />
<text x="438.5" y="47.0">u</text>
<rect x="470.0" y="24.5" class="" />
<text x="497.5" y="47.0">i</text>
<rect x="529.0" y="24.5" class="" />
<text x="556.5" y="47.0">o</text>
<rect x="588.0" y="24.5" class="" />
<text x="615.5" y="47.0">p</text>

<rect x="352.0" y="73.5" class="" />
<text x="379.5" y="96.0">h</text>
<rect x="411.0" y="73.5" class="" />
<text x="438.5" y="96.0">j</text>
<rect x="470.0" y="73.5" class="" />
<text x="497.5" y="96.0">k</text>
<rect x="529.0" y="73.5" class="" />
<text x="556.5" y="96.0">l</text>
<rect x="588.0" y="73.5" class="" />
<text x="615.5" y="96.0">'</text>

<rect x="352.0" y="122.5" class="" />
<text x="379.5" y="145.0">n</text>
<rect x="411.0" y="122.5" class="" />
<text x="438.5" y="145.0">m</text>
<rect x="470.0" y="122.5" class="" />
<text x="497.5" y="145.0">,</text>
<rect x="529.0" y="122.5" class="" />
<text x="556.5" y="145.0">.</text>
<rect x="588.0" y="122.5" class="" />
<text x="615.5" y="136.0">enter</text>
<text x="615.5" y="154.0">(shft)</text>

<rect x="147.5" y="171.5" class="" />
<text x="175.0" y="185.0">esc</text>
<text x="175.0" y="203.0">(opt)</text>
<rect x="206.5" y="171.5" class="" />
<text x="234.0" y="194.0">cmd</text>
<rect x="265.5" y="171.5" class="" />
<text x="293.0" y="185.0">tab</text>
<text x="293.0" y="203.0">(ctrl)</text>

<rect x="352.0" y="171.5" class="" />
<text x="379.5" y="194.0">space</text>
<rect x="411.0" y="171.5" class="" />
<text x="438.5" y="194.0">sym</text>
<rect x="470.0" y="171.5" class="" />
<text x="497.5" y="185.0">bksp</text>
<text x="497.5" y="203.0">(num)</text>



<rect x="29.5"  y="243.0" class="" />
<text x="57.0"  y="265.5">!</text>
<rect x="88.5"  y="243.0" class="" />
<text x="116.0" y="265.5">@</text>
<rect x="147.5" y="243.0" class="" />
<text x="175.0" y="265.5">#</text>
<rect x="206.5" y="243.0" class="" />
<text x="234.0" y="265.5">$</text>
<rect x="265.5" y="243.0" class="" />
<text x="293.0" y="265.5">%</text>

<rect x="29.5"  y="292.0" class="" />
<text x="57.0"  y="314.5">^</text>
<rect x="88.5"  y="292.0" class="" />
<text x="116.0" y="314.5">&amp;</text>
<rect x="147.5" y="292.0" class="" />
<text x="175.0" y="314.5">_</text>
<rect x="206.5" y="292.0" class="" />
<text x="234.0" y="314.5">\</text>
<rect x="265.5" y="292.0" class="" />
<text x="293.0" y="314.5">|</text>

<rect x="29.5"  y="341.0" class="" />
<text x="57.0"  y="363.5">+</text>
<rect x="88.5"  y="341.0" class="" />
<text x="116.0" y="363.5">-</text>
<rect x="147.5" y="341.0" class="" />
<text x="175.0" y="363.5">*</text>
<rect x="206.5" y="341.0" class="" />
<text x="234.0" y="363.5">/</text>
<rect x="265.5" y="341.0" class="" />
<text x="293.0" y="363.5">=</text>

<rect x="352.0" y="243.0" class="" />
<text x="379.5" y="265.5">~</text>
<rect x="411.0" y="243.0" class="" />
<text x="438.5" y="265.5">¨</text>
<rect x="470.0" y="243.0" class="" />
<text x="497.5" y="265.5">(</text>
<rect x="529.0" y="243.0" class="" />
<text x="556.5" y="265.5">)</text>
<rect x="588.0" y="243.0" class="" />
<text x="615.5" y="265.5">:</text>

<rect x="352.0" y="292.0" class="" />
<text x="379.5" y="314.5"></text>
<rect x="411.0" y="292.0" class="" />
<text x="438.5" y="314.5">?</text>
<rect x="470.0" y="292.0" class="" />
<text x="497.5" y="314.5">{</text>
<rect x="529.0" y="292.0" class="" />
<text x="556.5" y="314.5">}</text>
<rect x="588.0" y="292.0" class="" />
<text x="615.5" y="314.5">;</text>

<rect x="352.0" y="341.0" class="" />
<text x="379.5" y="363.5">`</text>
<rect x="411.0" y="341.0" class="" />
<text x="438.5" y="363.5">´</text>
<rect x="470.0" y="341.0" class="" />
<text x="497.5" y="363.5">[</text>
<rect x="529.0" y="341.0" class="" />
<text x="556.5" y="363.5">]</text>
<rect x="588.0" y="341.0" class="" />
<text x="615.5" y="354.5">enter</text>
<text x="615.5" y="372.5">(shft)</text>




<rect x="147.5" y="390.0" class="" />
<text x="175.0" y="403.5">esc</text>
<text x="175.0" y="421.5">(opt)</text>
<rect x="206.5" y="390.0" class="" />
<text x="234.0" y="412.5">cmd</text>
<rect x="265.5" y="390.0" class="" />
<text x="293.0" y="403.5">tab</text>
<text x="293.0" y="421.5">(ctrl)</text>

<rect x="352.0" y="390.0" class="" />
<text x="379.5" y="412.5">space</text>
<rect x="411.0" y="390.0" class="held" />
<text x="438.5" y="412.5">sym</text>
<rect x="470.0" y="390.0" class="" />
<text x="497.5" y="403.5">bksp</text>
<text x="497.5" y="421.5">(num)</text>



<rect x="29.5"  y="461.5" class="" />
<text x="57.0"  y="484.0">1</text>
<rect x="88.5"  y="461.5" class="" />
<text x="116.0" y="484.0">2</text>
<rect x="147.5" y="461.5" class="" />
<text x="175.0" y="484.0">3</text>
<rect x="206.5" y="461.5" class="" />
<text x="234.0" y="484.0">4</text>
<rect x="265.5" y="461.5" class="" />
<text x="293.0" y="484.0">5</text>

<rect x="29.5"  y="510.5" class="" />
<text x="57.0"  y="533.0">6</text>
<rect x="88.5"  y="510.5" class="" />
<text x="116.0" y="533.0">7</text>
<rect x="147.5" y="510.5" class="" />
<text x="175.0" y="533.0">8</text>
<rect x="206.5" y="510.5" class="" />
<text x="234.0" y="533.0">9</text>
<rect x="265.5" y="510.5" class="" />
<text x="293.0" y="533.0">0</text>

<rect x="29.5"  y="559.5" class="" />
<text x="57.0"  y="582.0">+</text>
<rect x="88.5"  y="559.5" class="" />
<text x="116.0" y="582.0">-</text>
<rect x="147.5" y="559.5" class="" />
<text x="175.0" y="582.0">*</text>
<rect x="206.5" y="559.5" class="" />
<text x="234.0" y="582.0">/</text>
<rect x="265.5" y="559.5" class="" />
<text x="293.0" y="582.0">=</text>

<rect x="352.0" y="461.5" class="" />
<text x="379.5" y="484.0">pgup</text>
<rect x="411.0" y="461.5" class="" />
<text x="438.5" y="484.0">home</text>
<rect x="470.0" y="461.5" class="" />
<text x="497.5" y="484.0">up</text>
<rect x="529.0" y="461.5" class="" />
<text x="556.5" y="484.0">end</text>
<rect x="588.0" y="461.5" class="" />
<text x="615.5" y="484.0">del</text>

<rect x="352.0" y="510.5" class="" />
<text x="379.5" y="533.0">pgdn</text>
<rect x="411.0" y="510.5" class="" />
<text x="438.5" y="533.0">left</text>
<rect x="470.0" y="510.5" class="" />
<text x="497.5" y="533.0">down</text>
<rect x="529.0" y="510.5" class="" />
<text x="556.5" y="533.0">right</text>
<rect x="588.0" y="510.5" class="" />
<text x="615.5" y="533.0"></text>

<rect x="352.0" y="559.5" class="" />
<text x="379.5" y="582.0">esc</text>
<rect x="411.0" y="559.5" class="" />
<text x="438.5" y="582.0"></text>
<rect x="470.0" y="559.5" class="" />
<text x="497.5" y="582.0">,</text>
<rect x="529.0" y="559.5" class="" />
<text x="556.5" y="582.0">.</text>
<rect x="588.0" y="559.5" class="" />
<text x="615.5" y="573.0">enter</text>
<text x="615.5" y="591.0">(shft)</text>


<rect x="147.5" y="608.5" class="" />
<text x="175.0" y="622.0">esc</text>
<text x="175.0" y="640">(opt)</text>
<rect x="206.5" y="608.5" class="" />
<text x="234.0" y="631.0">cmd</text>
<rect x="265.5" y="608.5" class="" />
<text x="293.0" y="622.0">tab</text>
<text x="293.0" y="640">(ctrl)</text>

<rect x="352.0" y="608.5" class="" />
<text x="379.5" y="631.0">space</text>
<rect x="411.0" y="608.5" class="" />
<text x="438.5" y="631.0">sym</text>
<rect x="470.0" y="608.5" class="held" />
<text x="497.5" y="622.0">bksp</text>
<text x="497.5" y="640">(num)</text>


<rect x="29.5"  y="680.0" class="" />
<text x="57.0"  y="702.5">f1</text>
<rect x="88.5"  y="680.0" class="" />
<text x="116.0" y="702.5">f2</text>
<rect x="147.5" y="680.0" class="" />
<text x="175.0" y="702.5">f3</text>
<rect x="206.5" y="680.0" class="" />
<text x="234.0" y="702.5">f4</text>
<rect x="265.5" y="680.0" class="" />
<text x="293.0" y="702.5">f5</text>

<rect x="29.5"  y="729.0" class="" />
<text x="57.0"  y="751.5">f6</text>
<rect x="88.5"  y="729.0" class="" />
<text x="116.0" y="751.5">f7</text>
<rect x="147.5" y="729.0" class="" />
<text x="175.0" y="751.5">f8</text>
<rect x="206.5" y="729.0" class="" />
<text x="234.0" y="751.5">f9</text>
<rect x="265.5" y="729.0" class="" />
<text x="293.0" y="751.5">f10</text>

<rect x="29.5"  y="778.0" class="" />
<text x="57.0"  y="800.5">f11</text>
<rect x="88.5"  y="778.0" class="" />
<text x="116.0" y="800.5">f12</text>
<rect x="147.5" y="778.0" class="" />
<text x="175.0" y="800.5"></text>
<rect x="206.5" y="778.0" class="" />
<text x="234.0" y="800.5"></text>
<rect x="265.5" y="778.0" class="" />
<text x="293.0" y="800.5"></text>

<rect x="352.0" y="680.0" class="" />
<text x="379.5" y="702.5">reset</text>
<rect x="411.0" y="680.0" class="" />
<text x="438.5" y="702.5">volup</text>
<rect x="470.0" y="680.0" class="" />
<text x="497.5" y="702.5">ins</text>
<rect x="529.0" y="680.0" class="" />
<text x="556.5" y="702.5"></text>
<rect x="588.0" y="680.0" class="" />
<text x="615.5" y="702.5">prsc</text>

<rect x="352.0" y="729.0" class="" />
<text x="379.5" y="751.5"></text>
<rect x="411.0" y="729.0" class="" />
<text x="438.5" y="751.5">voldn</text>
<rect x="470.0" y="729.0" class="" />
<text x="497.5" y="751.5"></text>
<rect x="529.0" y="729.0" class="" />
<text x="556.5" y="751.5"></text>
<rect x="588.0" y="729.0" class="" />
<text x="615.5" y="751.5"></text>

<rect x="352.0" y="778.0" class="" />
<text x="379.5" y="800.5">mac</text>
<rect x="411.0" y="778.0" class="" />
<text x="438.5" y="800.5"></text>
<rect x="470.0" y="778.0" class="" />
<text x="497.5" y="800.5">æ</text>
<rect x="529.0" y="778.0" class="" />
<text x="556.5" y="800.5">ø</text>
<rect x="588.0" y="778.0" class="" />
<text x="615.5" y="800.5">å</text>


<rect x="147.5" y="827.0" class="" />
<text x="175.0" y="840.5">esc</text>
<text x="175.0" y="858.5">(opt)</text>
<rect x="206.5" y="827.0" class="" />
<text x="234.0" y="849.5">cmd</text>
<rect x="265.5" y="827.0" class="" />
<text x="293.0" y="840.5">tab</text>
<text x="293.0" y="858.5">(ctrl)</text>

<rect x="352.0" y="827.0" class="" />
<text x="379.5" y="849.5">space</text>
<rect x="411.0" y="827.0" class="held" />
<text x="438.5" y="849.5">sym</text>
<rect x="470.0" y="827.0" class="held" />
<text x="497.5" y="840.5">bksp</text>
<text x="497.5" y="858.5">(num)</text>





<rect x="29.5"  y="898.5" class="" />
<text x="57.0"  y="774.0">f1</text>
<rect x="88.5"  y="898.5" class="" />
<text x="116.0" y="774.0">f2</text>
<rect x="147.5" y="898.5" class="" />
<text x="175.0" y="774.0">f3</text>
<rect x="206.5" y="898.5" class="" />
<text x="234.0" y="774.0">f4</text>
<rect x="265.5" y="898.5" class="" />
<text x="293.0" y="774.0">f5</text>

<rect x="29.5"  y="729.0" class="" />
<text x="57.0"  y="751.5">f6</text>
<rect x="88.5"  y="729.0" class="" />
<text x="116.0" y="751.5">f7</text>
<rect x="147.5" y="729.0" class="" />
<text x="175.0" y="751.5">f8</text>
<rect x="206.5" y="729.0" class="" />
<text x="234.0" y="751.5">f9</text>
<rect x="265.5" y="729.0" class="" />
<text x="293.0" y="751.5">f10</text>

<rect x="29.5"  y="778.0" class="" />
<text x="57.0"  y="800.5">f11</text>
<rect x="88.5"  y="778.0" class="" />
<text x="116.0" y="800.5">f12</text>
<rect x="147.5" y="778.0" class="" />
<text x="175.0" y="800.5"></text>
<rect x="206.5" y="778.0" class="" />
<text x="234.0" y="800.5"></text>
<rect x="265.5" y="778.0" class="" />
<text x="293.0" y="800.5"></text>

<rect x="352.0" y="898.5" class="" />
<text x="379.5" y="774.0">reset</text>
<rect x="411.0" y="898.5" class="" />
<text x="438.5" y="774.0">volup</text>
<rect x="470.0" y="898.5" class="" />
<text x="497.5" y="774.0">ins</text>
<rect x="529.0" y="898.5" class="" />
<text x="556.5" y="774.0"></text>
<rect x="588.0" y="898.5" class="" />
<text x="615.5" y="774.0">prsc</text>

<rect x="352.0" y="729.0" class="" />
<text x="379.5" y="751.5"></text>
<rect x="411.0" y="729.0" class="" />
<text x="438.5" y="751.5">voldn</text>
<rect x="470.0" y="729.0" class="" />
<text x="497.5" y="751.5"></text>
<rect x="529.0" y="729.0" class="" />
<text x="556.5" y="751.5"></text>
<rect x="588.0" y="729.0" class="" />
<text x="615.5" y="751.5"></text>

<rect x="352.0" y="778.0" class="" />
<text x="379.5" y="800.5">mac</text>
<rect x="411.0" y="778.0" class="" />
<text x="438.5" y="800.5"></text>
<rect x="470.0" y="778.0" class="" />
<text x="497.5" y="800.5">æ</text>
<rect x="529.0" y="778.0" class="" />
<text x="556.5" y="800.5">ø</text>
<rect x="588.0" y="778.0" class="" />
<text x="615.5" y="800.5">å</text>


<rect x="147.5" y="827.0" class="" />
<text x="175.0" y="840.5">esc</text>
<text x="175.0" y="858.5">(opt)</text>
<rect x="206.5" y="827.0" class="" />
<text x="234.0" y="849.5">cmd</text>
<rect x="265.5" y="827.0" class="" />
<text x="293.0" y="840.5">tab</text>
<text x="293.0" y="858.5">(ctrl)</text>

<rect x="352.0" y="827.0" class="" />
<text x="379.5" y="849.5">space</text>
<rect x="411.0" y="827.0" class="held" />
<text x="438.5" y="849.5">sym</text>
<rect x="470.0" y="827.0" class="held" />
<text x="497.5" y="840.5">bksp</text>
<text x="497.5" y="858.5">(num)</text>



</svg>
